<svg width="500" height="500" viewBox="0 0 500 500" fill="none" xmlns="http://www.w3.org/2000/svg">
<g clip-path="url(#clip0_419_2050)">
<mask id="path-1-outside-1_419_2050" maskUnits="userSpaceOnUse" x="31" y="45" width="438" height="410" fill="black">
<rect fill="white" x="31" y="45" width="438" height="410"/>
<path fill-rule="evenodd" clip-rule="evenodd" d="M194.099 49.9366C189.182 52.5533 185.779 55.9779 183.864 60.2351C179.46 70.0233 184.41 80.5461 198.344 91.0243C203.689 95.0427 204.175 98.3793 200.23 103.958C198.849 105.91 198.857 105.913 202.647 105.042C209.458 103.475 212.85 99.9418 213.684 93.5419C214.372 88.2542 211.71 83.1291 203.582 74.0981C199.423 69.4786 196.216 65.0679 195.885 63.5109C195.279 60.6709 196.555 54.5979 198.625 50.475C200.18 47.3781 199.139 47.2547 194.099 49.9366ZM232.911 49.9366C222.356 55.5539 218.341 65.7752 222.829 75.6016C224.581 79.4375 231.171 86.4657 238.041 91.8242C241.876 94.8157 242.329 98.2395 239.511 102.934L237.73 105.9L241.496 105.033C248.268 103.475 251.663 99.9291 252.495 93.5419C253.19 88.2116 250.431 82.933 242.32 74.069C238.394 69.78 234.926 65.2159 234.611 63.9276C233.867 60.8707 234.836 55.7355 236.972 51.4256C238.969 47.3954 238.209 47.1167 232.911 49.9366ZM271.723 49.9366C259.699 56.3356 256.337 68.3401 263.575 79.0289C265.339 81.6337 269.68 86.0517 273.222 88.8462C280.616 94.6796 281.629 97.4278 278.38 102.838L276.542 105.9L280.22 105.049C290.139 102.755 294.074 93.6672 289.28 84.1251C288.532 82.6379 285.029 78.289 281.492 74.4603C272.108 64.2971 271.658 62.8953 274.811 53.6618C275.781 50.82 276.575 48.3787 276.575 48.237C276.575 47.6342 275.034 48.1744 271.723 49.9366ZM120.293 121.552C118.063 122.891 117.618 126.766 118.667 135.684C119.87 145.904 121.802 152.941 123.601 153.652C125.852 154.541 128.83 154.29 129.971 153.115C131.367 151.678 131.307 148.739 129.722 141.039C129.003 137.544 128.407 133.97 128.399 133.095C128.385 131.591 134.117 131.506 236.553 131.506H344.723L344.116 137.033C342.29 153.649 331.761 173.543 318.695 185.068C315.054 188.278 314.3 191.996 316.772 194.542C319.587 197.438 322.198 196.276 329.385 188.932C344.629 173.35 353.362 153.736 354.79 131.874C355.309 123.923 355.252 123.561 353.244 122.114C351.33 120.734 341.795 120.613 236.463 120.639C163.563 120.657 121.231 120.989 120.293 121.552ZM162.785 147.849C161.815 148.848 161.021 150.482 161.021 151.48C161.021 152.479 161.815 154.113 162.785 155.112C164.256 156.626 165.725 156.928 171.606 156.928C177.487 156.928 178.957 156.626 180.427 155.112C181.397 154.113 182.191 152.479 182.191 151.48C182.191 150.482 181.397 148.848 180.427 147.849C178.957 146.335 177.487 146.033 171.606 146.033C165.725 146.033 164.256 146.335 162.785 147.849ZM208.654 147.849C207.684 148.848 206.89 150.482 206.89 151.48C206.89 152.479 207.684 154.113 208.654 155.112C210.124 156.626 211.594 156.928 217.475 156.928C223.356 156.928 224.825 156.626 226.296 155.112C227.266 154.113 228.06 152.479 228.06 151.48C228.06 150.482 227.266 148.848 226.296 147.849C224.825 146.335 223.356 146.033 217.475 146.033C211.594 146.033 210.124 146.335 208.654 147.849ZM254.523 147.849C253.552 148.848 252.758 150.482 252.758 151.48C252.758 152.479 253.552 154.113 254.523 155.112C255.993 156.626 257.463 156.928 263.343 156.928C269.224 156.928 270.694 156.626 272.164 155.112C273.135 154.113 273.928 152.479 273.928 151.48C273.928 150.482 273.135 148.848 272.164 147.849C270.694 146.335 269.224 146.033 263.343 146.033C257.463 146.033 255.993 146.335 254.523 147.849ZM300.391 147.849C299.421 148.848 298.627 150.482 298.627 151.48C298.627 152.479 299.421 154.113 300.391 155.112C301.862 156.626 303.331 156.928 309.212 156.928C315.093 156.928 316.563 156.626 318.033 155.112C319.003 154.113 319.797 152.479 319.797 151.48C319.797 150.482 319.003 148.848 318.033 147.849C316.563 146.335 315.093 146.033 309.212 146.033C303.331 146.033 301.862 146.335 300.391 147.849ZM114.76 169.265C111.39 170.04 103.315 172.688 96.8154 175.15C90.3153 177.612 84.6373 179.626 84.1971 179.626C83.7569 179.626 83.397 178.604 83.397 177.356C83.397 176.108 82.6032 174.269 81.6329 173.27C79.9666 171.555 78.6929 171.455 58.6985 171.455C38.7042 171.455 37.4304 171.555 35.7642 173.27C33.5184 175.582 33.5184 178.222 35.7642 180.534C37.411 182.229 38.7042 182.35 55.1702 182.35H72.812V231.377V280.404H55.1702C38.7042 280.404 37.411 280.525 35.7642 282.22C34.7939 283.219 34 284.853 34 285.852C34 286.85 34.7939 288.485 35.7642 289.483C37.4296 291.198 38.7042 291.299 58.53 291.299C75.2545 291.299 79.8801 291.038 81.2439 290.013C82.6252 288.975 83.0416 287.274 83.397 281.197L83.8381 273.667L87.8075 272.445C93.7272 270.624 114.624 270.702 124.846 272.583C129.52 273.443 145.097 278.195 160.129 283.346C196.771 295.901 192.923 295.975 228.942 282.038C243.739 276.314 271.326 265.741 290.247 258.545C318.77 247.696 325.238 244.917 328.095 242.277C339.373 231.861 337.676 212.609 324.884 205.856C318.565 202.521 313.279 202.493 272.042 205.585L232.911 208.518L222.767 203.693C207.135 196.256 182.981 185.073 182.552 185.073C182.339 185.073 176.041 182.222 168.556 178.735C161.071 175.25 152.046 171.537 148.501 170.485C139.812 167.906 123.264 167.308 114.76 169.265ZM124.414 178.406C116.654 179.353 110.544 181.079 97.8536 185.905L83.8381 191.235L83.6079 227.151L83.3768 263.067L86.2541 261.975C90.9389 260.199 119.205 260.586 128.825 262.559C133.191 263.454 148.703 268.245 163.297 273.204C182.897 279.864 191.003 282.22 194.321 282.22C197.972 282.22 207.12 279.055 243.207 265.308C267.623 256.007 294.944 245.612 303.92 242.208C317.237 237.158 320.667 235.496 322.568 233.17C328.391 226.047 325.808 216.689 317.292 214.063C314.319 213.146 307.848 213.376 279.92 215.389C261.342 216.73 243.959 218.055 241.291 218.336L236.44 218.845L236.731 224.547C237.096 231.707 234.607 238.171 229.738 242.698C224.626 247.452 220.738 248.824 213.505 248.43C207.764 248.118 205.444 247.215 180.427 235.553C165.63 228.656 152.829 222.38 151.98 221.607C151.13 220.833 150.436 219.538 150.436 218.728C150.436 216.254 153.065 213.219 155.209 213.219C156.324 213.219 169.559 218.938 184.62 225.929C199.679 232.92 213.074 238.64 214.385 238.64C219.982 238.64 225.712 233.699 226.838 227.903C227.516 224.42 225.93 219.481 223.327 216.965C221.188 214.897 159.606 185.69 149.382 181.894C144.309 180.01 130.801 177.52 127.966 177.946C127.468 178.021 125.87 178.228 124.414 178.406ZM350.67 299.998C348.487 300.811 343.858 302.82 340.383 304.463C330.049 309.349 281.05 336.756 278.134 339.281C272.303 344.332 269.649 355.43 272.56 362.6C273.678 365.353 273.677 365.748 272.554 365.748C271.849 365.748 263.722 362.884 254.495 359.382C220.83 346.608 210.16 344.791 194.354 349.145C181.707 352.63 176.582 364.683 184.035 373.419C185.53 375.173 190.514 378.542 195.542 381.201C200.419 383.78 208.044 388.245 212.486 391.124C224.928 399.189 253.832 416.105 265.003 421.86L275.042 427.032L287.055 426.982C299.984 426.927 298.167 427.253 344.937 416.576C370.034 410.847 378.969 410.172 398.993 412.498C406.619 413.384 412.967 414.201 413.101 414.314C413.235 414.428 412.314 419.544 411.056 425.683C409.796 431.823 408.986 437.753 409.257 438.861C409.527 439.968 410.845 441.309 412.185 441.841C415.612 443.199 457.89 452 460.986 452C464.456 452 466.895 448.337 465.511 445.209C464.348 442.582 463.618 442.361 439.569 437.304C429.367 435.159 420.846 432.94 420.634 432.373C420.423 431.805 422.824 418.932 425.97 403.765C429.116 388.599 433.775 365.771 436.322 353.037C438.87 340.304 441.084 329.714 441.243 329.503C441.402 329.294 445.639 330.009 450.657 331.092C462.212 333.588 463.218 333.564 465.006 330.756C466.186 328.901 466.279 328.008 465.478 326.199C464.226 323.369 463.275 323.025 447.844 319.81L435.198 317.175L433.51 319.318C432.582 320.497 431.823 322.029 431.823 322.723C431.823 323.417 431.285 323.984 430.63 323.984C429.974 323.984 420.071 319.08 408.625 313.087C385.221 300.832 381.401 299.599 364.784 298.928C356.856 298.609 353.773 298.843 350.67 299.998ZM349.788 311.561C337.087 317.207 287.637 344.691 284.407 347.9C278.462 353.806 281.889 364.649 290.21 366.255C292.95 366.784 294.709 366.366 299.843 363.964C318.883 355.059 332.447 349.406 334.771 349.406C336.631 349.406 337.839 350.099 338.909 351.78C341.453 355.777 339.349 358.009 329.059 362.225C324.208 364.214 314.284 368.782 307.007 372.377L293.776 378.913L285.837 378.884C277.284 378.853 279.525 379.529 238.204 364.513C224.523 359.543 215.93 357.577 207.874 357.577C197.076 357.577 188.848 361.586 191.031 365.784C191.48 366.649 195.482 369.287 199.922 371.648C204.363 374.009 213.111 379.167 219.362 383.11C235.568 393.334 262.218 408.855 271.155 413.275C278.564 416.938 279.018 417.042 287.16 416.904C296.054 416.753 302.976 415.461 339.644 407.108C371.344 399.888 376.571 399.415 397.565 401.87C406.882 402.959 414.701 403.647 414.943 403.398C415.844 402.471 429.107 335.357 428.493 334.833C428.141 334.533 425.273 333.145 422.12 331.749C418.966 330.352 410.216 325.819 402.674 321.675C384.08 311.46 380.343 310.244 366.107 309.78C355.538 309.435 354.26 309.574 349.788 311.561Z"/>
</mask>
<path fill-rule="evenodd" clip-rule="evenodd" d="M194.099 49.9366C189.182 52.5533 185.779 55.9779 183.864 60.2351C179.46 70.0233 184.41 80.5461 198.344 91.0243C203.689 95.0427 204.175 98.3793 200.23 103.958C198.849 105.91 198.857 105.913 202.647 105.042C209.458 103.475 212.85 99.9418 213.684 93.5419C214.372 88.2542 211.71 83.1291 203.582 74.0981C199.423 69.4786 196.216 65.0679 195.885 63.5109C195.279 60.6709 196.555 54.5979 198.625 50.475C200.18 47.3781 199.139 47.2547 194.099 49.9366ZM232.911 49.9366C222.356 55.5539 218.341 65.7752 222.829 75.6016C224.581 79.4375 231.171 86.4657 238.041 91.8242C241.876 94.8157 242.329 98.2395 239.511 102.934L237.73 105.9L241.496 105.033C248.268 103.475 251.663 99.9291 252.495 93.5419C253.19 88.2116 250.431 82.933 242.32 74.069C238.394 69.78 234.926 65.2159 234.611 63.9276C233.867 60.8707 234.836 55.7355 236.972 51.4256C238.969 47.3954 238.209 47.1167 232.911 49.9366ZM271.723 49.9366C259.699 56.3356 256.337 68.3401 263.575 79.0289C265.339 81.6337 269.68 86.0517 273.222 88.8462C280.616 94.6796 281.629 97.4278 278.38 102.838L276.542 105.9L280.22 105.049C290.139 102.755 294.074 93.6672 289.28 84.1251C288.532 82.6379 285.029 78.289 281.492 74.4603C272.108 64.2971 271.658 62.8953 274.811 53.6618C275.781 50.82 276.575 48.3787 276.575 48.237C276.575 47.6342 275.034 48.1744 271.723 49.9366ZM120.293 121.552C118.063 122.891 117.618 126.766 118.667 135.684C119.87 145.904 121.802 152.941 123.601 153.652C125.852 154.541 128.83 154.29 129.971 153.115C131.367 151.678 131.307 148.739 129.722 141.039C129.003 137.544 128.407 133.97 128.399 133.095C128.385 131.591 134.117 131.506 236.553 131.506H344.723L344.116 137.033C342.29 153.649 331.761 173.543 318.695 185.068C315.054 188.278 314.3 191.996 316.772 194.542C319.587 197.438 322.198 196.276 329.385 188.932C344.629 173.35 353.362 153.736 354.79 131.874C355.309 123.923 355.252 123.561 353.244 122.114C351.33 120.734 341.795 120.613 236.463 120.639C163.563 120.657 121.231 120.989 120.293 121.552ZM162.785 147.849C161.815 148.848 161.021 150.482 161.021 151.48C161.021 152.479 161.815 154.113 162.785 155.112C164.256 156.626 165.725 156.928 171.606 156.928C177.487 156.928 178.957 156.626 180.427 155.112C181.397 154.113 182.191 152.479 182.191 151.48C182.191 150.482 181.397 148.848 180.427 147.849C178.957 146.335 177.487 146.033 171.606 146.033C165.725 146.033 164.256 146.335 162.785 147.849ZM208.654 147.849C207.684 148.848 206.89 150.482 206.89 151.48C206.89 152.479 207.684 154.113 208.654 155.112C210.124 156.626 211.594 156.928 217.475 156.928C223.356 156.928 224.825 156.626 226.296 155.112C227.266 154.113 228.06 152.479 228.06 151.48C228.06 150.482 227.266 148.848 226.296 147.849C224.825 146.335 223.356 146.033 217.475 146.033C211.594 146.033 210.124 146.335 208.654 147.849ZM254.523 147.849C253.552 148.848 252.758 150.482 252.758 151.48C252.758 152.479 253.552 154.113 254.523 155.112C255.993 156.626 257.463 156.928 263.343 156.928C269.224 156.928 270.694 156.626 272.164 155.112C273.135 154.113 273.928 152.479 273.928 151.48C273.928 150.482 273.135 148.848 272.164 147.849C270.694 146.335 269.224 146.033 263.343 146.033C257.463 146.033 255.993 146.335 254.523 147.849ZM300.391 147.849C299.421 148.848 298.627 150.482 298.627 151.48C298.627 152.479 299.421 154.113 300.391 155.112C301.862 156.626 303.331 156.928 309.212 156.928C315.093 156.928 316.563 156.626 318.033 155.112C319.003 154.113 319.797 152.479 319.797 151.48C319.797 150.482 319.003 148.848 318.033 147.849C316.563 146.335 315.093 146.033 309.212 146.033C303.331 146.033 301.862 146.335 300.391 147.849ZM114.76 169.265C111.39 170.04 103.315 172.688 96.8154 175.15C90.3153 177.612 84.6373 179.626 84.1971 179.626C83.7569 179.626 83.397 178.604 83.397 177.356C83.397 176.108 82.6032 174.269 81.6329 173.27C79.9666 171.555 78.6929 171.455 58.6985 171.455C38.7042 171.455 37.4304 171.555 35.7642 173.27C33.5184 175.582 33.5184 178.222 35.7642 180.534C37.411 182.229 38.7042 182.35 55.1702 182.35H72.812V231.377V280.404H55.1702C38.7042 280.404 37.411 280.525 35.7642 282.22C34.7939 283.219 34 284.853 34 285.852C34 286.85 34.7939 288.485 35.7642 289.483C37.4296 291.198 38.7042 291.299 58.53 291.299C75.2545 291.299 79.8801 291.038 81.2439 290.013C82.6252 288.975 83.0416 287.274 83.397 281.197L83.8381 273.667L87.8075 272.445C93.7272 270.624 114.624 270.702 124.846 272.583C129.52 273.443 145.097 278.195 160.129 283.346C196.771 295.901 192.923 295.975 228.942 282.038C243.739 276.314 271.326 265.741 290.247 258.545C318.77 247.696 325.238 244.917 328.095 242.277C339.373 231.861 337.676 212.609 324.884 205.856C318.565 202.521 313.279 202.493 272.042 205.585L232.911 208.518L222.767 203.693C207.135 196.256 182.981 185.073 182.552 185.073C182.339 185.073 176.041 182.222 168.556 178.735C161.071 175.25 152.046 171.537 148.501 170.485C139.812 167.906 123.264 167.308 114.76 169.265ZM124.414 178.406C116.654 179.353 110.544 181.079 97.8536 185.905L83.8381 191.235L83.6079 227.151L83.3768 263.067L86.2541 261.975C90.9389 260.199 119.205 260.586 128.825 262.559C133.191 263.454 148.703 268.245 163.297 273.204C182.897 279.864 191.003 282.22 194.321 282.22C197.972 282.22 207.12 279.055 243.207 265.308C267.623 256.007 294.944 245.612 303.92 242.208C317.237 237.158 320.667 235.496 322.568 233.17C328.391 226.047 325.808 216.689 317.292 214.063C314.319 213.146 307.848 213.376 279.92 215.389C261.342 216.73 243.959 218.055 241.291 218.336L236.44 218.845L236.731 224.547C237.096 231.707 234.607 238.171 229.738 242.698C224.626 247.452 220.738 248.824 213.505 248.43C207.764 248.118 205.444 247.215 180.427 235.553C165.63 228.656 152.829 222.38 151.98 221.607C151.13 220.833 150.436 219.538 150.436 218.728C150.436 216.254 153.065 213.219 155.209 213.219C156.324 213.219 169.559 218.938 184.62 225.929C199.679 232.92 213.074 238.64 214.385 238.64C219.982 238.64 225.712 233.699 226.838 227.903C227.516 224.42 225.93 219.481 223.327 216.965C221.188 214.897 159.606 185.69 149.382 181.894C144.309 180.01 130.801 177.52 127.966 177.946C127.468 178.021 125.87 178.228 124.414 178.406ZM350.67 299.998C348.487 300.811 343.858 302.82 340.383 304.463C330.049 309.349 281.05 336.756 278.134 339.281C272.303 344.332 269.649 355.43 272.56 362.6C273.678 365.353 273.677 365.748 272.554 365.748C271.849 365.748 263.722 362.884 254.495 359.382C220.83 346.608 210.16 344.791 194.354 349.145C181.707 352.63 176.582 364.683 184.035 373.419C185.53 375.173 190.514 378.542 195.542 381.201C200.419 383.78 208.044 388.245 212.486 391.124C224.928 399.189 253.832 416.105 265.003 421.86L275.042 427.032L287.055 426.982C299.984 426.927 298.167 427.253 344.937 416.576C370.034 410.847 378.969 410.172 398.993 412.498C406.619 413.384 412.967 414.201 413.101 414.314C413.235 414.428 412.314 419.544 411.056 425.683C409.796 431.823 408.986 437.753 409.257 438.861C409.527 439.968 410.845 441.309 412.185 441.841C415.612 443.199 457.89 452 460.986 452C464.456 452 466.895 448.337 465.511 445.209C464.348 442.582 463.618 442.361 439.569 437.304C429.367 435.159 420.846 432.94 420.634 432.373C420.423 431.805 422.824 418.932 425.97 403.765C429.116 388.599 433.775 365.771 436.322 353.037C438.87 340.304 441.084 329.714 441.243 329.503C441.402 329.294 445.639 330.009 450.657 331.092C462.212 333.588 463.218 333.564 465.006 330.756C466.186 328.901 466.279 328.008 465.478 326.199C464.226 323.369 463.275 323.025 447.844 319.81L435.198 317.175L433.51 319.318C432.582 320.497 431.823 322.029 431.823 322.723C431.823 323.417 431.285 323.984 430.63 323.984C429.974 323.984 420.071 319.08 408.625 313.087C385.221 300.832 381.401 299.599 364.784 298.928C356.856 298.609 353.773 298.843 350.67 299.998ZM349.788 311.561C337.087 317.207 287.637 344.691 284.407 347.9C278.462 353.806 281.889 364.649 290.21 366.255C292.95 366.784 294.709 366.366 299.843 363.964C318.883 355.059 332.447 349.406 334.771 349.406C336.631 349.406 337.839 350.099 338.909 351.78C341.453 355.777 339.349 358.009 329.059 362.225C324.208 364.214 314.284 368.782 307.007 372.377L293.776 378.913L285.837 378.884C277.284 378.853 279.525 379.529 238.204 364.513C224.523 359.543 215.93 357.577 207.874 357.577C197.076 357.577 188.848 361.586 191.031 365.784C191.48 366.649 195.482 369.287 199.922 371.648C204.363 374.009 213.111 379.167 219.362 383.11C235.568 393.334 262.218 408.855 271.155 413.275C278.564 416.938 279.018 417.042 287.16 416.904C296.054 416.753 302.976 415.461 339.644 407.108C371.344 399.888 376.571 399.415 397.565 401.87C406.882 402.959 414.701 403.647 414.943 403.398C415.844 402.471 429.107 335.357 428.493 334.833C428.141 334.533 425.273 333.145 422.12 331.749C418.966 330.352 410.216 325.819 402.674 321.675C384.08 311.46 380.343 310.244 366.107 309.78C355.538 309.435 354.26 309.574 349.788 311.561Z" fill="black"/>
<path fill-rule="evenodd" clip-rule="evenodd" d="M194.099 49.9366C189.182 52.5533 185.779 55.9779 183.864 60.2351C179.46 70.0233 184.41 80.5461 198.344 91.0243C203.689 95.0427 204.175 98.3793 200.23 103.958C198.849 105.91 198.857 105.913 202.647 105.042C209.458 103.475 212.85 99.9418 213.684 93.5419C214.372 88.2542 211.71 83.1291 203.582 74.0981C199.423 69.4786 196.216 65.0679 195.885 63.5109C195.279 60.6709 196.555 54.5979 198.625 50.475C200.18 47.3781 199.139 47.2547 194.099 49.9366ZM232.911 49.9366C222.356 55.5539 218.341 65.7752 222.829 75.6016C224.581 79.4375 231.171 86.4657 238.041 91.8242C241.876 94.8157 242.329 98.2395 239.511 102.934L237.73 105.9L241.496 105.033C248.268 103.475 251.663 99.9291 252.495 93.5419C253.19 88.2116 250.431 82.933 242.32 74.069C238.394 69.78 234.926 65.2159 234.611 63.9276C233.867 60.8707 234.836 55.7355 236.972 51.4256C238.969 47.3954 238.209 47.1167 232.911 49.9366ZM271.723 49.9366C259.699 56.3356 256.337 68.3401 263.575 79.0289C265.339 81.6337 269.68 86.0517 273.222 88.8462C280.616 94.6796 281.629 97.4278 278.38 102.838L276.542 105.9L280.22 105.049C290.139 102.755 294.074 93.6672 289.28 84.1251C288.532 82.6379 285.029 78.289 281.492 74.4603C272.108 64.2971 271.658 62.8953 274.811 53.6618C275.781 50.82 276.575 48.3787 276.575 48.237C276.575 47.6342 275.034 48.1744 271.723 49.9366ZM120.293 121.552C118.063 122.891 117.618 126.766 118.667 135.684C119.87 145.904 121.802 152.941 123.601 153.652C125.852 154.541 128.83 154.29 129.971 153.115C131.367 151.678 131.307 148.739 129.722 141.039C129.003 137.544 128.407 133.97 128.399 133.095C128.385 131.591 134.117 131.506 236.553 131.506H344.723L344.116 137.033C342.29 153.649 331.761 173.543 318.695 185.068C315.054 188.278 314.3 191.996 316.772 194.542C319.587 197.438 322.198 196.276 329.385 188.932C344.629 173.35 353.362 153.736 354.79 131.874C355.309 123.923 355.252 123.561 353.244 122.114C351.33 120.734 341.795 120.613 236.463 120.639C163.563 120.657 121.231 120.989 120.293 121.552ZM162.785 147.849C161.815 148.848 161.021 150.482 161.021 151.48C161.021 152.479 161.815 154.113 162.785 155.112C164.256 156.626 165.725 156.928 171.606 156.928C177.487 156.928 178.957 156.626 180.427 155.112C181.397 154.113 182.191 152.479 182.191 151.48C182.191 150.482 181.397 148.848 180.427 147.849C178.957 146.335 177.487 146.033 171.606 146.033C165.725 146.033 164.256 146.335 162.785 147.849ZM208.654 147.849C207.684 148.848 206.89 150.482 206.89 151.48C206.89 152.479 207.684 154.113 208.654 155.112C210.124 156.626 211.594 156.928 217.475 156.928C223.356 156.928 224.825 156.626 226.296 155.112C227.266 154.113 228.06 152.479 228.06 151.48C228.06 150.482 227.266 148.848 226.296 147.849C224.825 146.335 223.356 146.033 217.475 146.033C211.594 146.033 210.124 146.335 208.654 147.849ZM254.523 147.849C253.552 148.848 252.758 150.482 252.758 151.48C252.758 152.479 253.552 154.113 254.523 155.112C255.993 156.626 257.463 156.928 263.343 156.928C269.224 156.928 270.694 156.626 272.164 155.112C273.135 154.113 273.928 152.479 273.928 151.48C273.928 150.482 273.135 148.848 272.164 147.849C270.694 146.335 269.224 146.033 263.343 146.033C257.463 146.033 255.993 146.335 254.523 147.849ZM300.391 147.849C299.421 148.848 298.627 150.482 298.627 151.48C298.627 152.479 299.421 154.113 300.391 155.112C301.862 156.626 303.331 156.928 309.212 156.928C315.093 156.928 316.563 156.626 318.033 155.112C319.003 154.113 319.797 152.479 319.797 151.48C319.797 150.482 319.003 148.848 318.033 147.849C316.563 146.335 315.093 146.033 309.212 146.033C303.331 146.033 301.862 146.335 300.391 147.849ZM114.76 169.265C111.39 170.04 103.315 172.688 96.8154 175.15C90.3153 177.612 84.6373 179.626 84.1971 179.626C83.7569 179.626 83.397 178.604 83.397 177.356C83.397 176.108 82.6032 174.269 81.6329 173.27C79.9666 171.555 78.6929 171.455 58.6985 171.455C38.7042 171.455 37.4304 171.555 35.7642 173.27C33.5184 175.582 33.5184 178.222 35.7642 180.534C37.411 182.229 38.7042 182.35 55.1702 182.35H72.812V231.377V280.404H55.1702C38.7042 280.404 37.411 280.525 35.7642 282.22C34.7939 283.219 34 284.853 34 285.852C34 286.85 34.7939 288.485 35.7642 289.483C37.4296 291.198 38.7042 291.299 58.53 291.299C75.2545 291.299 79.8801 291.038 81.2439 290.013C82.6252 288.975 83.0416 287.274 83.397 281.197L83.8381 273.667L87.8075 272.445C93.7272 270.624 114.624 270.702 124.846 272.583C129.52 273.443 145.097 278.195 160.129 283.346C196.771 295.901 192.923 295.975 228.942 282.038C243.739 276.314 271.326 265.741 290.247 258.545C318.77 247.696 325.238 244.917 328.095 242.277C339.373 231.861 337.676 212.609 324.884 205.856C318.565 202.521 313.279 202.493 272.042 205.585L232.911 208.518L222.767 203.693C207.135 196.256 182.981 185.073 182.552 185.073C182.339 185.073 176.041 182.222 168.556 178.735C161.071 175.25 152.046 171.537 148.501 170.485C139.812 167.906 123.264 167.308 114.76 169.265ZM124.414 178.406C116.654 179.353 110.544 181.079 97.8536 185.905L83.8381 191.235L83.6079 227.151L83.3768 263.067L86.2541 261.975C90.9389 260.199 119.205 260.586 128.825 262.559C133.191 263.454 148.703 268.245 163.297 273.204C182.897 279.864 191.003 282.22 194.321 282.22C197.972 282.22 207.12 279.055 243.207 265.308C267.623 256.007 294.944 245.612 303.92 242.208C317.237 237.158 320.667 235.496 322.568 233.17C328.391 226.047 325.808 216.689 317.292 214.063C314.319 213.146 307.848 213.376 279.92 215.389C261.342 216.73 243.959 218.055 241.291 218.336L236.44 218.845L236.731 224.547C237.096 231.707 234.607 238.171 229.738 242.698C224.626 247.452 220.738 248.824 213.505 248.43C207.764 248.118 205.444 247.215 180.427 235.553C165.63 228.656 152.829 222.38 151.98 221.607C151.13 220.833 150.436 219.538 150.436 218.728C150.436 216.254 153.065 213.219 155.209 213.219C156.324 213.219 169.559 218.938 184.62 225.929C199.679 232.92 213.074 238.64 214.385 238.64C219.982 238.64 225.712 233.699 226.838 227.903C227.516 224.42 225.93 219.481 223.327 216.965C221.188 214.897 159.606 185.69 149.382 181.894C144.309 180.01 130.801 177.52 127.966 177.946C127.468 178.021 125.87 178.228 124.414 178.406ZM350.67 299.998C348.487 300.811 343.858 302.82 340.383 304.463C330.049 309.349 281.05 336.756 278.134 339.281C272.303 344.332 269.649 355.43 272.56 362.6C273.678 365.353 273.677 365.748 272.554 365.748C271.849 365.748 263.722 362.884 254.495 359.382C220.83 346.608 210.16 344.791 194.354 349.145C181.707 352.63 176.582 364.683 184.035 373.419C185.53 375.173 190.514 378.542 195.542 381.201C200.419 383.78 208.044 388.245 212.486 391.124C224.928 399.189 253.832 416.105 265.003 421.86L275.042 427.032L287.055 426.982C299.984 426.927 298.167 427.253 344.937 416.576C370.034 410.847 378.969 410.172 398.993 412.498C406.619 413.384 412.967 414.201 413.101 414.314C413.235 414.428 412.314 419.544 411.056 425.683C409.796 431.823 408.986 437.753 409.257 438.861C409.527 439.968 410.845 441.309 412.185 441.841C415.612 443.199 457.89 452 460.986 452C464.456 452 466.895 448.337 465.511 445.209C464.348 442.582 463.618 442.361 439.569 437.304C429.367 435.159 420.846 432.94 420.634 432.373C420.423 431.805 422.824 418.932 425.97 403.765C429.116 388.599 433.775 365.771 436.322 353.037C438.87 340.304 441.084 329.714 441.243 329.503C441.402 329.294 445.639 330.009 450.657 331.092C462.212 333.588 463.218 333.564 465.006 330.756C466.186 328.901 466.279 328.008 465.478 326.199C464.226 323.369 463.275 323.025 447.844 319.81L435.198 317.175L433.51 319.318C432.582 320.497 431.823 322.029 431.823 322.723C431.823 323.417 431.285 323.984 430.63 323.984C429.974 323.984 420.071 319.08 408.625 313.087C385.221 300.832 381.401 299.599 364.784 298.928C356.856 298.609 353.773 298.843 350.67 299.998ZM349.788 311.561C337.087 317.207 287.637 344.691 284.407 347.9C278.462 353.806 281.889 364.649 290.21 366.255C292.95 366.784 294.709 366.366 299.843 363.964C318.883 355.059 332.447 349.406 334.771 349.406C336.631 349.406 337.839 350.099 338.909 351.78C341.453 355.777 339.349 358.009 329.059 362.225C324.208 364.214 314.284 368.782 307.007 372.377L293.776 378.913L285.837 378.884C277.284 378.853 279.525 379.529 238.204 364.513C224.523 359.543 215.93 357.577 207.874 357.577C197.076 357.577 188.848 361.586 191.031 365.784C191.48 366.649 195.482 369.287 199.922 371.648C204.363 374.009 213.111 379.167 219.362 383.11C235.568 393.334 262.218 408.855 271.155 413.275C278.564 416.938 279.018 417.042 287.16 416.904C296.054 416.753 302.976 415.461 339.644 407.108C371.344 399.888 376.571 399.415 397.565 401.87C406.882 402.959 414.701 403.647 414.943 403.398C415.844 402.471 429.107 335.357 428.493 334.833C428.141 334.533 425.273 333.145 422.12 331.749C418.966 330.352 410.216 325.819 402.674 321.675C384.08 311.46 380.343 310.244 366.107 309.78C355.538 309.435 354.26 309.574 349.788 311.561Z" stroke="black" stroke-width="6" mask="url(#path-1-outside-1_419_2050)"/>
</g>
<defs>
<clipPath id="clip0_419_2050">
<rect width="500" height="500" fill="white"/>
</clipPath>
</defs>
</svg>
